<svg width="539" height="265" viewBox="0 0 539 265" fill="none" xmlns="http://www.w3.org/2000/svg">
<g clip-path="url(#clip0)">
<path d="M95.0034 109.175C96.4529 101.297 92.0852 95.8235 84.208 94.8889C79.7752 94.4007 75.3153 94.2032 70.8567 94.2976H54.1486C49.7618 84.9518 45.6802 75.9111 41.5985 66.8704C37.4336 57.2172 35.6353 46.7086 36.3534 36.2198C40.435 36.5059 43.9826 37.0972 47.4349 37.0972C57.9442 36.8111 68.7396 37.3833 79.2489 36.2198C89.7582 35.0564 94.126 27.7704 92.0852 17.2611C90.9217 10.5473 89.167 9.0787 82.1671 9.38387H48.9417C36.6967 9.38387 24.4326 9.38389 12.1877 9.66999C7.51474 9.66999 5.16874 11.4247 4.5584 16.0786C2.80366 29.8113 0.476738 43.811 3.96713 57.5246C6.25512 65.9282 8.9864 74.2048 12.1495 82.3197C14.99 89.0683 16.4278 96.3243 16.3753 103.646C16.3229 110.968 14.7813 118.203 11.8443 124.91C9.51742 130.174 7.47659 135.419 5.43576 140.684C-0.64858 157.029 -0.133604 174.252 0.152494 191.17C0.152494 200.516 5.11152 205.475 14.4574 206.429C18.4731 206.454 22.4806 206.064 26.4163 205.265C32.5578 204.674 32.8439 204.102 32.8439 197.96C33.4352 188.042 33.7213 178.41 34.3125 168.778C34.4455 160.535 36.229 152.403 39.5577 144.861C43.3723 136.106 48.0261 127.924 52.3939 119.474C53.7609 119.416 55.1301 119.512 56.4756 119.76C63.7806 120.638 71.0665 122.087 78.3716 122.965C88.8809 124.357 93.5347 118.807 95.0034 109.175Z" fill="#1B1B1B"/>
<path d="M178.487 180.966C174.552 180.158 170.544 179.768 166.528 179.803C157.182 179.803 148.141 180.375 137.918 180.68C136.255 168.022 138.603 155.161 144.632 143.907C147.855 137.784 151.059 131.948 153.978 125.52C156.479 120.159 157.725 114.297 157.623 108.382C157.521 102.466 156.072 96.6515 153.386 91.3794C150.468 85.543 147.55 79.9355 144.632 74.4424C140.263 65.9571 137.963 56.559 137.918 47.0152C137.918 40.3015 138.223 33.8929 138.223 27.1791V14.3429C138.198 12.2381 137.469 10.2023 136.152 8.56023C134.835 6.9182 133.006 5.76449 130.956 5.28314C127.343 4.33761 123.606 3.94533 119.875 4.11967C114.325 4.71094 112.57 7.03787 112.246 12.5882C111.654 21.3428 111.368 30.0973 111.082 38.8519C110.99 50.7568 113.598 62.5277 118.711 73.279C121.63 79.1154 124.243 85.2569 126.875 91.0933C132.711 104.807 132.425 118.234 124.834 131.357C123.365 133.989 121.916 136.907 120.447 139.52C109.652 156.152 108.488 174.844 108.488 193.802C108.202 198.475 110.834 201.432 115.202 202.557C116.957 202.843 118.406 203.434 120.161 203.72C137.67 206.353 155.465 205.475 173.28 204.598C174.462 204.547 175.634 204.355 176.77 204.026C178.957 203.61 180.934 202.453 182.368 200.751C183.803 199.049 184.608 196.905 184.647 194.68C184.901 192.745 185.003 190.794 184.952 188.843C184.609 183.884 183.16 181.843 178.487 180.966Z" fill="#1B1B1B"/>
<path d="M309.424 62.7697C301.242 48.4839 299.201 33.3016 300.955 16.9941C301.251 11.5559 301.251 6.10563 300.955 0.667435H270.61C270.019 8.54465 269.733 15.5445 269.141 22.5444C267.692 37.4214 272.06 50.5628 279.937 63.113C282.283 66.9276 284.324 70.7423 286.364 74.7858C288.855 79.6551 290.177 85.0374 290.227 90.5064C290.276 95.9754 289.052 101.381 286.651 106.295C285.201 109.213 283.732 112.131 281.978 115.049C273.881 128.126 267.6 142.242 263.305 157.01C262.287 160.131 261.011 163.161 259.49 166.07C258.313 168.046 256.574 169.626 254.495 170.611C252.417 171.596 250.092 171.941 247.818 171.601C240.532 170.438 234.104 166.947 232.063 159.051C230.898 153.885 230.601 148.56 231.186 143.297C231.777 135.133 235.859 127.828 239.654 120.828C242.573 115.583 245.491 110.033 248.123 104.483C250.357 100.154 251.523 95.354 251.523 90.483C251.523 85.6119 250.357 80.8116 248.123 76.4833C245.586 71.1754 242.759 66.0114 239.654 61.0149C232.863 50.3897 229.317 38.0149 229.45 25.4053C229.145 19.855 229.145 14.3238 229.145 9.05962C228.859 2.65103 228.268 2.05978 222.145 1.77368H209.595C201.966 2.05978 199.677 3.52841 198.513 11.1005C195.881 28.6096 197.636 45.2414 207.554 60.1376C210.472 64.8105 213.104 69.4643 216.023 74.1373C223.309 86.4013 223.309 98.6463 216.595 111.196C214.84 115.011 212.513 118.501 210.472 122.297C208.145 127.256 205.799 131.929 203.759 137.174C200.554 145.635 200.554 154.976 203.759 163.438C205.418 168.874 207.569 174.147 210.186 179.192C212.024 183.06 214.407 186.644 217.262 189.835L195.099 262.962H205.017L210.739 243.889H243.812L249.534 262.962H259.452L241.409 203.358C247.266 204.455 253.282 204.377 259.109 203.129C274.577 199.906 287.719 192.62 293.25 176.56C295.535 169.586 297.389 162.477 298.8 155.275C300.536 142.724 303.454 130.746 309.596 119.665C312.126 114.543 314.367 109.283 316.309 103.91C318.119 99.2836 318.973 94.3387 318.823 89.373C318.672 84.4072 317.519 79.5232 315.432 75.0146C313.661 70.8233 311.655 66.7351 309.424 62.7697ZM241.199 235.21H213.2L224.644 196.415C226.634 197.808 228.739 199.026 230.938 200.058L241.199 235.21Z" fill="#1B1B1B"/>
<path d="M484.687 169.961C487.846 154.281 492.535 138.95 498.687 124.185C503.951 112.532 505.401 101.145 501.891 88.8808C496.932 72.249 491.687 55.9033 486.633 39.2906C484.802 32.3143 481.252 25.908 476.308 20.657C471.363 15.4061 465.182 11.4778 458.328 9.23127C441.162 3.39488 423.31 4.55835 405.801 3.70006H404.923C404.098 3.70974 403.282 3.88424 402.525 4.21332C401.768 4.5424 401.084 5.01943 400.514 5.6164C399.944 6.21336 399.498 6.91824 399.204 7.68966C398.91 8.46108 398.773 9.28351 398.801 10.1086C396.455 34.6177 394.7 59.1458 403.455 83.0635C407.107 93.1462 408.31 103.953 406.964 114.591C406.067 121.41 404.6 128.141 402.577 134.714C397.046 153.978 397.332 173.833 398.496 193.669C398.801 198.037 400.25 201.546 404.637 202.996C407.834 204.13 411.171 204.823 414.555 205.055C420.392 205.342 426.228 205.055 432.064 205.055V205.628H448.41C457.192 205.563 465.744 202.815 472.919 197.751C475.335 196.231 477.41 194.228 479.015 191.868C480.62 189.508 481.72 186.842 482.246 184.037C483.219 179.211 483.524 174.538 484.687 169.961ZM469.219 123.27C465.71 135.222 461.895 147.181 457.775 159.146C454.692 167.345 449.225 174.433 442.078 179.497C437.119 182.702 431.282 182.397 424.912 182.11C424.626 177.438 424.34 172.784 424.34 168.111C424.372 156.265 426.041 144.481 429.299 133.092C433.114 120.256 435.707 107.401 433.972 93.9925C433.094 85.2379 430.748 76.8266 429.299 68.3009C427.638 57.3834 427.44 46.2934 428.708 35.3234C442.726 34.446 452.053 40.2824 456.726 52.4892C461.971 65.8405 466.644 79.3442 471.031 93.0578C474.273 103.338 472.137 113.562 469.219 123.193V123.27Z" fill="#1B1B1B"/>
<path d="M70.9521 185.83H61.7016V263H111.311V254.398H70.9521V185.83Z" fill="#1B1B1B"/>
<path d="M389.188 191.552C387.101 189.689 384.663 188.262 382.017 187.356C378.896 186.278 375.609 185.761 372.308 185.83H364.679C364.679 182.912 364.793 179.993 364.679 177.171C363.797 163.125 367.046 149.128 374.025 136.907C376.657 131.948 379.27 126.398 381.654 121.134C383.739 115.962 384.612 110.382 384.205 104.821C383.798 99.2597 382.123 93.8656 379.308 89.0525C376.39 83.7883 373.186 78.8293 370.267 73.794C364.431 64.162 360.922 54.244 361.513 42.8573V33.8166C361.227 28.5524 360.922 21.8577 360.044 15.4301C359.472 9.87976 358.003 8.71631 352.758 9.00241C348.085 9.30758 343.718 9.87978 339.407 10.471C332.979 11.6345 332.407 12.2258 332.407 18.9204C331.816 28.5524 331.816 38.1844 332.121 47.8163C332.237 55.9047 334.566 63.8068 338.854 70.666C342.344 76.7885 346.14 82.3387 349.363 88.4612C352.322 93.5926 353.927 99.3923 354.027 105.315C354.127 111.237 352.719 117.088 349.935 122.316C348 126.613 345.656 130.713 342.936 134.561C330.099 152.948 330.977 173.68 331.854 194.68C332.249 196.914 333.502 198.906 335.345 200.23C339.21 202.049 343.414 203.037 347.685 203.129V254.398H341.086V262.981H372.27C375.571 263.049 378.858 262.533 381.978 261.455C384.625 260.548 387.063 259.122 389.15 257.259C391.087 255.493 392.594 253.308 393.556 250.869C394.595 248.314 395.12 245.579 395.101 242.82V241.485C395.19 237.605 393.83 233.831 391.286 230.9C388.878 228.023 385.652 225.948 382.036 224.949V223.633C383.822 223.136 385.529 222.391 387.109 221.42C388.685 220.442 390.095 219.219 391.286 217.796C393.799 214.847 395.154 211.085 395.101 207.211V205.876C395.127 203.154 394.601 200.455 393.556 197.941C392.643 195.487 391.144 193.293 389.188 191.552ZM382.455 232.12C383.741 233.305 384.749 234.758 385.408 236.377C386.068 237.996 386.362 239.74 386.27 241.485V242.153C386.34 243.874 386.008 245.587 385.299 247.156C384.591 248.726 383.525 250.108 382.188 251.194C379.127 253.435 375.393 254.565 371.603 254.398H356.935V228.592H371.927C375.759 228.373 379.529 229.636 382.455 232.12ZM386.27 207.211C386.365 208.957 386.072 210.702 385.412 212.321C384.753 213.94 383.743 215.393 382.455 216.576C379.512 218.978 375.778 220.195 371.984 219.99H356.993V200.917L357.927 200.478C360.666 199.31 362.842 197.121 363.992 194.375H371.736C375.544 194.206 379.291 195.381 382.322 197.693C383.655 198.731 384.721 200.072 385.431 201.604C386.14 203.137 386.474 204.817 386.403 206.505L386.27 207.211Z" fill="#1B1B1B"/>
<path d="M532.313 226.723C528.498 223.194 522.529 220.81 514.461 219.551C511.008 219.036 507.976 218.445 505.42 217.796C503.151 217.183 500.967 216.293 498.916 215.145C497.376 214.174 496.073 212.87 495.101 211.331C494.19 209.639 493.736 207.739 493.785 205.818V205.151C493.741 203.334 494.196 201.539 495.101 199.963C495.984 198.448 497.188 197.146 498.63 196.148C500.222 195.102 501.974 194.322 503.818 193.84C505.783 193.237 507.828 192.935 509.883 192.944C512.233 192.94 514.571 193.274 516.826 193.936C518.926 194.545 520.901 195.52 522.662 196.816C524.347 198.049 525.709 199.672 526.629 201.546C527.691 203.588 528.222 205.864 528.174 208.164V212.132H537.444V207.497C537.44 204.458 536.79 201.454 535.536 198.685C534.373 195.842 532.557 193.313 530.234 191.304C527.699 189.053 524.743 187.329 521.537 186.23C514.429 183.855 506.759 183.741 499.583 185.906C496.662 186.78 493.931 188.197 491.535 190.083C489.376 191.865 487.615 194.081 486.366 196.587C485.084 199.157 484.431 201.993 484.458 204.865V206.2C484.386 209.165 484.993 212.107 486.232 214.802C487.427 217.251 489.162 219.396 491.306 221.077C493.713 222.884 496.391 224.301 499.24 225.273C502.691 226.363 506.234 227.135 509.826 227.581C516.514 228.535 521.327 230.08 524.264 232.216C525.74 233.252 526.929 234.646 527.72 236.268C528.51 237.889 528.877 239.684 528.785 241.485V242.134C528.853 244.047 528.493 245.95 527.731 247.706C526.968 249.462 525.823 251.025 524.379 252.281C521.518 254.779 517.207 256.095 511.485 256.095C504.873 256.095 499.692 254.404 495.941 251.022C492.259 247.627 490.428 242.572 490.428 235.763V233.112H481.159V236.431C481.101 240.261 481.747 244.069 483.066 247.665C484.345 250.999 486.292 254.037 488.788 256.591C491.537 259.197 494.78 261.227 498.325 262.561C502.543 264.016 506.985 264.72 511.447 264.64C515.324 264.7 519.187 264.147 522.891 263C525.935 262.042 528.747 260.464 531.15 258.365C533.383 256.454 535.123 254.033 536.223 251.308C537.422 248.407 538.019 245.292 537.978 242.153V240.837C538.124 238.213 537.693 235.589 536.714 233.15C535.735 230.711 534.233 228.517 532.313 226.723Z" fill="#1B1B1B"/>
</g>
<defs>
<clipPath id="clip0">
<rect width="538.054" height="263.915" fill="white" transform="translate(0 0.629272)"/>
</clipPath>
</defs>
</svg>
